<svg width="1607" height="1650" viewBox="0 0 1607 1650" fill="none" xmlns="http://www.w3.org/2000/svg">
<g clip-path="url(#clip0_184_982)">
<path d="M607.424 557.784C679.134 549.24 760.74 543.969 836.417 541.343C851.466 540.762 865.895 540.343 879.39 540.115C969.78 538.092 1007.47 533.285 1105 540.115C1116.04 540.495 1189.17 543.5 1183 543.5C1224.52 546.655 1256.89 553.18 1281.03 561.811C1287.01 563.771 1292.97 565.893 1299 568.19C1299 568.19 1309.5 478.719 1219.5 394C1164.19 341.936 1122.5 319 1044 291.69C971.278 266.39 850 259 764.5 259C693.453 259 621.349 268.596 552.5 283.5C469.349 301.5 418.684 336.69 389.5 357.5C360.316 378.31 331.106 411.617 306.322 455.19C283.451 495.399 272 565.19 272 565.19C272 565.19 390.9 456.5 469.349 479.5C547.799 502.5 510 572.979 510 572.979C513.695 569.167 553.027 563.421 607.424 557.784Z" fill="#AB3432"/>
<path d="M299.5 1653.5C299.5 1653.5 308.5 989.5 320.5 921.5C332.5 853.5 319.907 745.369 469.349 658.773M1287.5 1091C1366.67 1042.88 1425.32 1006.73 1453.5 921.5C1472.38 864.399 1468 822.5 1453.5 778C1444.76 751.184 1415.87 705.314 1287.5 644.5M1287.5 1091C1257.32 1109.34 1210.96 1127.55 1187.57 1136.24C1178.45 1139.62 1168.3 1138.13 1160.39 1132.47L1121.53 1104.63C1110.35 1096.62 1095.14 1097.25 1084.65 1106.15L1060.49 1126.65C1050.17 1135.42 1035.25 1136.18 1024.09 1128.51L987.576 1103.42C976.81 1096.02 962.496 1096.44 952.181 1104.46L922.697 1127.36C911.966 1135.7 896.97 1135.78 886.148 1127.56L857.026 1105.45C845.892 1096.99 830.392 1097.35 819.659 1106.31L795.841 1126.19C785.108 1135.15 769.608 1135.51 758.474 1127.05L730.522 1105.83C719.162 1097.2 703.299 1097.76 692.582 1107.18L675.636 1122.06C663.346 1132.85 644.676 1131.81 633.661 1119.72L630.437 1116.18C618.267 1102.82 597.134 1103.17 585.418 1116.93L564.5 1141.5M1287.5 1091V1649M1075 731L1129 797.25M1129 797.25L1183 863.5M1129 797.25L1183 731M1129 797.25L1075 863.5M568 733L622 799.25M622 799.25L676 865.5M622 799.25L676 733M622 799.25L568 865.5M879.39 540.115C865.895 540.343 851.466 540.762 836.417 541.343M879.39 540.115C969.78 538.092 1007.47 533.285 1105 540.115M879.39 540.115C980.954 538.046 1062.34 538.648 1105 540.115M879.39 540.115C865.361 540.429 850.999 540.837 836.417 541.343M1183 543.5C1189.17 543.5 1116.04 540.495 1105 540.115M1183 543.5C1224.52 546.655 1256.89 553.18 1281.03 561.811M1183 543.5C1223.14 546.728 1252.32 552.397 1281.03 561.811M1183 543.5C1180.12 543.281 1107.9 540.318 1105 540.115M272 565.19C272 565.19 283.451 495.399 306.322 455.19C331.106 411.617 360.316 378.31 389.5 357.5C418.684 336.69 469.349 301.5 552.5 283.5C621.349 268.596 693.453 259 764.5 259C850 259 971.278 266.39 1044 291.69C1122.5 319 1164.19 341.936 1219.5 394C1309.5 478.719 1299 568.19 1299 568.19C1292.97 565.893 1287.01 563.771 1281.03 561.811M272 565.19C272 565.19 390.9 456.5 469.349 479.5C547.799 502.5 510 572.979 510 572.979C513.695 569.167 553.027 563.421 607.424 557.784M272 565.19C244.938 565.19 223 587.128 223 614.19C223 641.252 244.938 663.19 272 663.19C299.062 663.19 321 641.252 321 614.19C321 587.128 299.062 565.19 272 565.19ZM607.424 557.784C679.134 549.24 760.74 543.969 836.417 541.343M607.424 557.784C673.782 550.906 762.56 544.191 836.417 541.343M607.424 557.784C484.754 572.399 391.042 596.591 405.5 633.5C425.999 685.83 879.39 672 879.39 672C879.39 672 1338.5 687.038 1338.5 605.5C1338.5 579 1319.62 575.606 1281.03 561.811" stroke="black" stroke-width="31"/>
</g>
<defs>
<clipPath id="clip0_184_982">
<rect width="1607" height="1650" fill="white"/>
</clipPath>
</defs>
</svg>
