<svg width="370" height="65" viewBox="0 0 370 65" fill="none" xmlns="http://www.w3.org/2000/svg">
<path d="M330.863 6.22325L332.233 8.89208L332.233 8.89201L330.863 6.22325ZM342.14 3.00002L342.173 0.000202656H342.173L342.14 3.00002ZM351.366 5.6664L352.68 2.96909L352.679 2.96898L351.366 5.6664ZM352.135 18.4738L352.251 21.4716H352.251L352.135 18.4738ZM351.494 13.8105C351.389 12.1569 349.964 10.9013 348.31 11.006C346.657 11.1107 345.401 12.536 345.506 14.1896L351.494 13.8105ZM346.753 24.3208L349.091 26.2011L349.091 26.2007L346.753 24.3208ZM318.305 25.156L319.919 22.6269L319.856 22.5868L319.791 22.5498L318.305 25.156ZM334.451 35.4576L332.837 37.9867L332.969 38.0705L333.108 38.1402L334.451 35.4576ZM343 34L340.456 32.41L340.427 32.4565L340.4 32.5041L343 34ZM342.14 26.2697L344.369 24.2619L344.097 23.9602L343.755 23.7416L342.14 26.2697ZM324.5 15L326.115 12.4719L325.909 12.3406L325.685 12.2443L324.5 15ZM315.5 16.5L313.083 14.7233L312.99 14.8491L312.911 14.9837L315.5 16.5ZM322.662 13.4622C324.959 15.3914 324.959 15.3916 324.959 15.3919C324.959 15.3919 324.959 15.3921 324.959 15.3922C324.958 15.3924 324.958 15.3925 324.958 15.3925C324.958 15.3926 324.958 15.3923 324.959 15.3918C324.96 15.3906 324.962 15.3882 324.965 15.3846C324.971 15.3774 324.981 15.3654 324.996 15.3487C325.024 15.3153 325.068 15.2636 325.127 15.1956C325.245 15.0595 325.422 14.8588 325.646 14.6104C326.096 14.1119 326.732 13.4286 327.475 12.6916C329.03 11.1506 330.805 9.62519 332.233 8.89208L329.493 3.55441C327.19 4.73694 324.865 6.83102 323.251 8.43063C322.411 9.26388 321.696 10.0311 321.191 10.5907C320.938 10.8712 320.736 11.1014 320.595 11.2639C320.524 11.3452 320.469 11.4097 320.43 11.4553C320.411 11.4781 320.396 11.4961 320.384 11.5092C320.379 11.5157 320.375 11.521 320.371 11.525C320.369 11.5269 320.368 11.5286 320.367 11.53C320.366 11.5307 320.366 11.5312 320.365 11.5318C320.365 11.532 320.365 11.5323 320.365 11.5325C320.365 11.5328 320.364 11.5331 322.662 13.4622ZM332.233 8.89201C336.155 6.87832 338.376 5.95813 342.106 5.99983L342.173 0.000202656C336.952 -0.0581675 333.664 1.41258 329.493 3.55449L332.233 8.89201ZM342.106 5.99983C345.052 6.03277 346.783 6.77202 350.053 8.36383L352.679 2.96898C349.282 1.31513 346.532 0.048938 342.173 0.000202656L342.106 5.99983ZM350.053 8.36371C351.119 8.88276 352.606 10.154 353.999 11.5544C354.652 12.2111 355.218 12.8267 355.62 13.2783C355.82 13.5032 355.978 13.6853 356.084 13.8089C356.137 13.8706 356.176 13.9176 356.202 13.9478C356.215 13.9629 356.224 13.9738 356.229 13.9802C356.232 13.9834 356.234 13.9856 356.234 13.9865C356.235 13.987 356.235 13.9872 356.235 13.9871C356.235 13.9871 356.235 13.9869 356.235 13.9867C356.234 13.9866 356.234 13.9864 356.234 13.9864C356.234 13.9862 356.234 13.9859 358.542 12.0701C360.851 10.1543 360.851 10.154 360.851 10.1537C360.85 10.1536 360.85 10.1533 360.85 10.1531C360.85 10.1526 360.849 10.152 360.849 10.1514C360.848 10.1501 360.846 10.1485 360.845 10.1466C360.842 10.1429 360.837 10.138 360.832 10.1319C360.822 10.1198 360.808 10.1031 360.791 10.0821C360.755 10.04 360.705 9.98057 360.641 9.90581C360.513 9.7564 360.33 9.54519 360.101 9.2886C359.646 8.77706 359.003 8.07696 358.253 7.32281C356.839 5.90158 354.738 3.97099 352.68 2.96909L350.053 8.36371ZM356.29 17.917C355.762 14.964 355.762 14.9639 355.762 14.9639C355.762 14.9639 355.762 14.9639 355.762 14.9639C355.762 14.9639 355.762 14.9639 355.762 14.9639C355.762 14.9639 355.762 14.964 355.761 14.9641C355.76 14.9642 355.759 14.9645 355.757 14.9649C355.752 14.9656 355.745 14.9669 355.736 14.9685C355.717 14.9719 355.688 14.9769 355.651 14.9834C355.576 14.9965 355.466 15.0155 355.329 15.0386C355.056 15.0848 354.678 15.1468 354.262 15.2102C353.378 15.3447 352.495 15.4576 352.019 15.4761L352.251 21.4716C353.11 21.4383 354.305 21.2728 355.165 21.1418C355.621 21.0724 356.032 21.0049 356.328 20.9549C356.477 20.9298 356.598 20.9089 356.682 20.8941C356.725 20.8868 356.758 20.8809 356.781 20.8768C356.793 20.8748 356.802 20.8732 356.808 20.872C356.811 20.8714 356.814 20.871 356.816 20.8707C356.817 20.8705 356.817 20.8704 356.818 20.8702C356.818 20.8702 356.818 20.8702 356.819 20.8701C356.819 20.8701 356.819 20.8701 356.819 20.8701C356.819 20.87 356.819 20.87 356.29 17.917ZM352.019 15.4761C351.115 15.5112 350.746 15.4508 349.882 15.1178L347.724 20.7162C349.342 21.3399 350.524 21.5386 352.251 21.4716L352.019 15.4761ZM351.792 17.6552C351.693 16.5303 351.618 15.5655 351.568 14.8829C351.543 14.5418 351.525 14.2717 351.512 14.0877C351.506 13.9958 351.501 13.9254 351.498 13.8785C351.497 13.8551 351.495 13.8376 351.495 13.8261C351.494 13.8204 351.494 13.8162 351.494 13.8136C351.494 13.8123 351.494 13.8114 351.494 13.8109C351.494 13.8106 351.494 13.8104 351.494 13.8104C351.494 13.8103 351.494 13.8103 351.494 13.8103C351.494 13.8103 351.494 13.8104 351.494 13.8104C351.494 13.8104 351.494 13.8105 348.5 14C345.506 14.1896 345.506 14.1896 345.506 14.1897C345.506 14.1897 345.506 14.1898 345.506 14.1898C345.506 14.1899 345.506 14.1901 345.506 14.1903C345.506 14.1906 345.506 14.191 345.506 14.1915C345.506 14.1926 345.506 14.1941 345.506 14.1959C345.506 14.1996 345.507 14.2049 345.507 14.2117C345.508 14.2253 345.509 14.2451 345.511 14.2708C345.514 14.3222 345.519 14.3973 345.526 14.4942C345.539 14.6879 345.559 14.9688 345.584 15.3216C345.636 16.0267 345.713 17.0204 345.815 18.1788L351.792 17.6552ZM345.806 18.0515C345.854 19.127 345.756 19.8557 345.567 20.4482C345.379 21.0354 345.048 21.6542 344.415 22.4408L349.091 26.2007C350.062 24.9935 350.815 23.7327 351.281 22.2776C351.745 20.8279 351.871 19.3516 351.8 17.7825L345.806 18.0515ZM344.416 22.4404C344.16 22.7579 343.545 23.2268 342.735 23.6951C342.374 23.9036 342.042 24.074 341.802 24.1915C341.683 24.2497 341.589 24.2935 341.528 24.3212C341.498 24.335 341.477 24.3447 341.465 24.35C341.459 24.3527 341.455 24.3543 341.454 24.3547C341.454 24.3549 341.454 24.3549 341.455 24.3545C341.455 24.3544 341.455 24.3541 341.456 24.3538C341.457 24.3536 341.457 24.3535 341.457 24.3533C341.458 24.3532 341.458 24.353 341.458 24.353C341.458 24.3528 341.459 24.3526 342.652 27.105C343.846 29.8573 343.846 29.8571 343.847 29.857C343.847 29.8569 343.847 29.8567 343.848 29.8566C343.848 29.8563 343.849 29.856 343.85 29.8557C343.851 29.8551 343.853 29.8544 343.855 29.8536C343.858 29.8521 343.862 29.8502 343.867 29.848C343.877 29.8437 343.89 29.8381 343.905 29.8313C343.936 29.8178 343.977 29.7993 344.027 29.7762C344.128 29.7301 344.267 29.665 344.435 29.5829C344.769 29.4197 345.229 29.1837 345.738 28.8893C346.668 28.3516 348.103 27.4285 349.091 26.2011L344.416 22.4404ZM364 17.0817C364 18.893 362.704 19.9286 361.618 19.9286V25.9286C366.477 25.9286 370 21.7289 370 17.0817H364ZM361.618 19.9286C360.531 19.9286 359.236 18.893 359.236 17.0817H353.236C353.236 21.7289 356.759 25.9286 361.618 25.9286V19.9286ZM359.236 17.0817C359.236 15.2705 360.531 14.2349 361.618 14.2349V8.23488C356.759 8.23488 353.236 12.4347 353.236 17.0817H359.236ZM361.618 14.2349C362.704 14.2349 364 15.2705 364 17.0817H370C370 12.4347 366.477 8.23488 361.618 8.23488V14.2349ZM316.691 27.6851L332.837 37.9867L336.065 32.9286L319.919 22.6269L316.691 27.6851ZM334.451 35.4576C333.108 38.1402 333.109 38.1407 333.11 38.1413C333.11 38.1414 333.112 38.142 333.112 38.1424C333.114 38.1431 333.115 38.1439 333.117 38.1448C333.121 38.1465 333.125 38.1484 333.129 38.1505C333.137 38.1546 333.147 38.1595 333.159 38.1651C333.181 38.1762 333.21 38.19 333.245 38.2062C333.314 38.2385 333.406 38.2806 333.518 38.3295C333.743 38.427 334.054 38.5538 334.432 38.6865C335.173 38.9473 336.238 39.2544 337.449 39.3827C339.865 39.6386 343.482 39.1785 345.6 35.4959L340.4 32.5041C339.955 33.2763 339.298 33.545 338.081 33.416C337.474 33.3519 336.882 33.1882 336.421 33.0261C336.198 32.9475 336.021 32.8749 335.908 32.826C335.852 32.8017 335.813 32.7836 335.793 32.7743C335.783 32.7696 335.778 32.7671 335.778 32.7672C335.778 32.7672 335.78 32.7678 335.782 32.7691C335.784 32.7698 335.785 32.7706 335.787 32.7716C335.788 32.7721 335.789 32.7726 335.79 32.7732C335.791 32.7735 335.792 32.774 335.792 32.7741C335.793 32.7746 335.794 32.7751 334.451 35.4576ZM345.544 35.59C347.424 32.5814 347.068 29.6218 346.323 27.5982C345.957 26.6043 345.49 25.8003 345.119 25.2462C344.931 24.9657 344.761 24.7396 344.631 24.5749C344.565 24.4923 344.509 24.4244 344.465 24.3721C344.443 24.346 344.423 24.3236 344.407 24.3052C344.399 24.296 344.392 24.2878 344.386 24.2806C344.382 24.277 344.379 24.2736 344.377 24.2705C344.375 24.2689 344.374 24.2674 344.372 24.266C344.372 24.2653 344.371 24.2642 344.371 24.2639C344.37 24.2629 344.369 24.2619 342.14 26.2697C339.911 28.2776 339.91 28.2766 339.909 28.2757C339.909 28.2754 339.908 28.2744 339.907 28.2738C339.906 28.2726 339.905 28.2715 339.904 28.2704C339.902 28.2681 339.901 28.2661 339.899 28.2643C339.896 28.2607 339.893 28.2579 339.891 28.2559C339.888 28.2518 339.887 28.2509 339.889 28.2531C339.893 28.2574 339.906 28.2736 339.928 28.3008C339.971 28.3557 340.045 28.4523 340.133 28.584C340.314 28.8543 340.531 29.2329 340.692 29.6716C341.002 30.5131 341.076 31.4186 340.456 32.41L345.544 35.59ZM343.755 23.7416L326.115 12.4719L322.885 17.5281L340.525 28.7978L343.755 23.7416ZM324.5 15C325.685 12.2443 325.684 12.2438 325.683 12.2434C325.683 12.2432 325.682 12.2428 325.681 12.2424C325.68 12.2418 325.678 12.2411 325.676 12.2403C325.673 12.2388 325.669 12.2372 325.665 12.2354C325.656 12.2318 325.646 12.2276 325.635 12.2228C325.612 12.2132 325.583 12.2014 325.548 12.1875C325.479 12.1597 325.386 12.1238 325.273 12.0821C325.048 11.999 324.736 11.8919 324.358 11.7811C323.61 11.5624 322.549 11.3143 321.341 11.2271C318.973 11.0563 315.455 11.496 313.083 14.7233L317.917 18.2767C318.545 17.4223 319.527 17.1119 320.909 17.2116C321.575 17.2596 322.202 17.4019 322.673 17.5397C322.904 17.6071 323.084 17.6698 323.199 17.712C323.255 17.7329 323.295 17.7485 323.315 17.7565C323.325 17.7605 323.33 17.7627 323.33 17.7626C323.33 17.7626 323.329 17.762 323.326 17.7609C323.325 17.7603 323.323 17.7596 323.321 17.7588C323.32 17.7583 323.319 17.7578 323.318 17.7573C323.317 17.7571 323.316 17.7567 323.316 17.7566C323.315 17.7561 323.314 17.7557 324.5 15ZM312.911 14.9837C311.837 16.8174 311.454 18.6626 311.649 20.4156C311.839 22.1253 312.553 23.5249 313.311 24.5718C314.067 25.6148 314.928 26.3946 315.574 26.9033C315.902 27.1625 316.191 27.3641 316.407 27.5062C316.515 27.5776 316.606 27.6347 316.676 27.6773C316.711 27.6986 316.741 27.7163 316.765 27.7305C316.777 27.7376 316.787 27.7438 316.796 27.749C316.801 27.7517 316.805 27.7541 316.809 27.7563C316.811 27.7574 316.813 27.7584 316.814 27.7594C316.815 27.7599 316.816 27.7606 316.817 27.7609C316.818 27.7615 316.819 27.7622 318.305 25.156C319.791 22.5498 319.792 22.5505 319.793 22.5511C319.794 22.5513 319.795 22.5519 319.795 22.5523C319.797 22.5531 319.798 22.5538 319.799 22.5545C319.802 22.5559 319.804 22.5571 319.805 22.5581C319.809 22.5601 319.811 22.5614 319.812 22.5619C319.814 22.563 319.811 22.5612 319.803 22.5566C319.788 22.5473 319.755 22.5269 319.708 22.4959C319.613 22.4332 319.465 22.3306 319.288 22.1916C318.923 21.9038 318.503 21.5115 318.17 21.0518C317.84 20.5959 317.658 20.1621 317.613 19.7529C317.572 19.3869 317.613 18.8276 318.088 18.0163L312.911 14.9837Z" fill="white"/>
<path d="M25.88 39.4817C21.88 39.3756 18.9733 39.3093 17.16 39.2827V53.7263H8.68V39.2827C6.89333 39.3093 4 39.3756 0 39.4817V32.0013H25.88V39.4817ZM52.7385 47.1213C52.7385 48.0232 52.8451 48.6598 53.0585 49.0312C53.2718 49.4025 53.6985 49.6678 54.3385 49.827L54.1785 53.5672C53.3251 53.6998 52.5785 53.7926 51.9385 53.8457C51.3251 53.8987 50.4985 53.9253 49.4585 53.9253C47.1651 53.9253 45.6451 53.4213 44.8985 52.4133C44.1518 51.3787 43.7785 50.0657 43.7785 48.4741V47.4794C43.0051 49.6545 41.8718 51.2726 40.3785 52.3337C38.9118 53.3947 37.0318 53.9253 34.7385 53.9253C32.0718 53.9253 30.0585 53.3947 28.6985 52.3337C27.3651 51.2726 26.6985 49.6943 26.6985 47.5987C26.6985 45.8745 27.2718 44.5217 28.4185 43.5402C29.5651 42.5587 31.3385 41.8823 33.7385 41.511C31.7118 40.0785 29.6851 38.8318 27.6585 37.7707C29.2585 35.7547 31.0851 34.2295 33.1385 33.195C35.1918 32.1339 37.6851 31.6034 40.6185 31.6034C44.7251 31.6034 47.7651 32.492 49.7385 34.2693C51.7385 36.02 52.7385 38.7257 52.7385 42.3863V47.1213ZM41.4585 38.6063C40.0985 38.6063 38.8985 38.8318 37.8585 39.2827C36.8185 39.7337 35.8851 40.4101 35.0585 41.312C36.6585 41.1263 38.6585 41.0335 41.0585 41.0335C42.0451 41.0335 42.7385 40.9141 43.1385 40.6754C43.5385 40.4366 43.7385 40.1316 43.7385 39.7602C43.7385 39.4419 43.5385 39.1766 43.1385 38.9644C42.7385 38.7257 42.1785 38.6063 41.4585 38.6063ZM37.2585 47.4396C38.7518 47.4396 40.0985 47.1611 41.2985 46.604C42.4985 46.0204 43.3251 45.2644 43.7785 44.336V43.3015C43.1385 43.6198 42.4318 43.8718 41.6585 44.0575C40.8851 44.2166 39.9518 44.3758 38.8585 44.535L37.4185 44.7737C35.9251 45.0655 35.1785 45.5695 35.1785 46.2857C35.1785 47.055 35.8718 47.4396 37.2585 47.4396ZM81.3867 32.0013C81.2533 35.8476 81.1867 39.3225 81.1867 42.4261C81.1867 45.4766 81.2533 48.9516 81.3867 52.851H73.1867L73.6267 39.0838L67.5067 52.851H56.3469C56.5069 49.3495 56.5869 45.8745 56.5869 42.4261C56.5869 38.9246 56.5069 35.4497 56.3469 32.0013H64.2269L63.8269 46.1265L69.9467 32.0013H81.3867ZM68.4667 31.0463C67.2133 31.0463 66.0535 30.7678 64.9869 30.2107C63.9469 29.6537 63.1202 28.8579 62.5069 27.8234C61.8935 26.7888 61.5869 25.5819 61.5869 24.2025H65.5469C65.5469 25.2371 65.8135 26.0063 66.3469 26.5103C66.9067 26.9878 67.6133 27.2265 68.4667 27.2265C69.32 27.2265 70.0133 26.9878 70.5467 26.5103C71.1067 26.0063 71.3867 25.2371 71.3867 24.2025H75.3467C75.3467 25.5819 75.04 26.7888 74.4267 27.8234C73.8133 28.8579 72.9733 29.6537 71.9067 30.2107C70.8667 30.7678 69.72 31.0463 68.4667 31.0463ZM109.389 32.0013C109.256 36.0333 109.189 39.6541 109.189 42.8638C109.189 46.0735 109.256 49.6943 109.389 53.7263H100.709V46.4846H92.8693V53.7263H84.1893C84.3227 50.7023 84.3893 47.0815 84.3893 42.8638C84.3893 38.6461 84.3227 35.0253 84.1893 32.0013H92.8693V39.243H100.709V32.0013H109.389ZM126.067 36.8556C130.041 36.8556 132.814 37.6381 134.387 39.2032C135.961 40.7417 136.747 42.8903 136.747 45.6491C136.747 48.2221 135.961 50.2116 134.387 51.6175C132.841 52.9968 130.067 53.6865 126.067 53.6865H120.747V53.7263H112.187C112.321 50.7023 112.387 47.0815 112.387 42.8638C112.387 38.6461 112.321 35.0253 112.187 32.0013H120.747V36.8556H126.067ZM147.067 32.0013C146.934 34.9722 146.867 38.5798 146.867 42.824C146.867 47.0417 146.934 50.6493 147.067 53.6467H138.307C138.387 48.3149 138.427 43.832 138.427 40.1979C138.427 36.5638 138.387 33.8316 138.307 32.0013H147.067ZM123.667 47.36C125.561 47.36 126.881 47.2141 127.627 46.9223C128.374 46.6305 128.747 46.0602 128.747 45.2114C128.747 44.3625 128.361 43.7922 127.587 43.5004C126.814 43.1821 125.507 43.023 123.667 43.023L120.747 43.0627V47.36H123.667ZM174.913 32.0013C174.78 35.8476 174.713 39.3225 174.713 42.4261C174.713 45.4766 174.78 48.9516 174.913 52.851H166.713L167.153 39.0838L161.033 52.851H149.873C150.033 49.3495 150.113 45.8745 150.113 42.4261C150.113 38.9246 150.033 35.4497 149.873 32.0013H157.753L157.353 46.1265L163.473 32.0013H174.913ZM161.993 31.0463C160.74 31.0463 159.58 30.7678 158.513 30.2107C157.473 29.6537 156.647 28.8579 156.033 27.8234C155.42 26.7888 155.113 25.5819 155.113 24.2025H159.073C159.073 25.2371 159.34 26.0063 159.873 26.5103C160.433 26.9878 161.14 27.2265 161.993 27.2265C162.847 27.2265 163.54 26.9878 164.073 26.5103C164.633 26.0063 164.913 25.2371 164.913 24.2025H168.873C168.873 25.5819 168.567 26.7888 167.953 27.8234C167.34 28.8579 166.5 29.6537 165.433 30.2107C164.393 30.7678 163.247 31.0463 161.993 31.0463ZM193.443 42.8638C193.497 44.2166 193.923 45.3042 194.723 46.1265C195.55 46.9488 196.763 47.36 198.363 47.36C199.243 47.36 200.03 47.2008 200.723 46.8825C201.417 46.5377 202.057 46.0337 202.643 45.3705C204.91 46.2459 207.563 47.0019 210.603 47.6385C209.723 49.6811 208.23 51.2726 206.123 52.4133C204.043 53.5539 201.337 54.1242 198.003 54.1242C193.55 54.1242 190.257 53.0897 188.123 51.0206C185.99 48.9516 184.923 46.2326 184.923 42.8638C184.923 39.495 185.99 36.776 188.123 34.707C190.257 32.6379 193.55 31.6034 198.003 31.6034C201.337 31.6034 204.043 32.1737 206.123 33.3143C208.23 34.455 209.723 36.0465 210.603 38.0891C208.23 38.5931 205.577 39.3491 202.643 40.3571C202.057 39.6939 201.417 39.2032 200.723 38.8848C200.03 38.54 199.243 38.3676 198.363 38.3676C196.763 38.3676 195.55 38.7787 194.723 39.6011C193.923 40.4234 193.497 41.511 193.443 42.8638ZM238.845 47.1213C238.845 48.0232 238.951 48.6598 239.165 49.0312C239.378 49.4025 239.805 49.6678 240.445 49.827L240.285 53.5672C239.431 53.6998 238.685 53.7926 238.045 53.8457C237.431 53.8987 236.605 53.9253 235.565 53.9253C233.271 53.9253 231.751 53.4213 231.005 52.4133C230.258 51.3787 229.885 50.0657 229.885 48.4741V47.4794C229.111 49.6545 227.978 51.2726 226.485 52.3337C225.018 53.3947 223.138 53.9253 220.845 53.9253C218.178 53.9253 216.165 53.3947 214.805 52.3337C213.471 51.2726 212.805 49.6943 212.805 47.5987C212.805 45.8745 213.378 44.5217 214.525 43.5402C215.671 42.5587 217.445 41.8823 219.845 41.511C217.818 40.0785 215.791 38.8318 213.765 37.7707C215.365 35.7547 217.191 34.2295 219.245 33.195C221.298 32.1339 223.791 31.6034 226.725 31.6034C230.831 31.6034 233.871 32.492 235.845 34.2693C237.845 36.02 238.845 38.7257 238.845 42.3863V47.1213ZM227.565 38.6063C226.205 38.6063 225.005 38.8318 223.965 39.2827C222.925 39.7337 221.991 40.4101 221.165 41.312C222.765 41.1263 224.765 41.0335 227.165 41.0335C228.151 41.0335 228.845 40.9141 229.245 40.6754C229.645 40.4366 229.845 40.1316 229.845 39.7602C229.845 39.4419 229.645 39.1766 229.245 38.9644C228.845 38.7257 228.285 38.6063 227.565 38.6063ZM223.365 47.4396C224.858 47.4396 226.205 47.1611 227.405 46.604C228.605 46.0204 229.431 45.2644 229.885 44.336V43.3015C229.245 43.6198 228.538 43.8718 227.765 44.0575C226.991 44.2166 226.058 44.3758 224.965 44.535L223.525 44.7737C222.031 45.0655 221.285 45.5695 221.285 46.2857C221.285 47.055 221.978 47.4396 223.365 47.4396ZM267.653 32.0013C267.52 36.0333 267.453 39.6541 267.453 42.8638C267.453 46.0735 267.52 49.6943 267.653 53.7263H258.973V46.4846H251.133V53.7263H242.453C242.587 50.7023 242.653 47.0815 242.653 42.8638C242.653 38.6461 242.587 35.0253 242.453 32.0013H251.133V39.243H258.973V32.0013H267.653ZM294.731 39.4817C290.731 39.3756 287.825 39.3093 286.011 39.2827V53.7263H277.531V39.2827C275.745 39.3093 272.851 39.3756 268.851 39.4817V32.0013H294.731V39.4817ZM321.59 47.1213C321.59 48.0232 321.697 48.6598 321.91 49.0312C322.123 49.4025 322.55 49.6678 323.19 49.827L323.03 53.5672C322.177 53.6998 321.43 53.7926 320.79 53.8457C320.177 53.8987 319.35 53.9253 318.31 53.9253C316.017 53.9253 314.497 53.4213 313.75 52.4133C313.003 51.3787 312.63 50.0657 312.63 48.4741V47.4794C311.857 49.6545 310.723 51.2726 309.23 52.3337C307.763 53.3947 305.883 53.9253 303.59 53.9253C300.923 53.9253 298.91 53.3947 297.55 52.3337C296.217 51.2726 295.55 49.6943 295.55 47.5987C295.55 45.8745 296.123 44.5217 297.27 43.5402C298.417 42.5587 300.19 41.8823 302.59 41.511C300.563 40.0785 298.537 38.8318 296.51 37.7707C298.11 35.7547 299.937 34.2295 301.99 33.195C304.043 32.1339 306.537 31.6034 309.47 31.6034C313.577 31.6034 316.617 32.492 318.59 34.2693C320.59 36.02 321.59 38.7257 321.59 42.3863V47.1213ZM310.31 38.6063C308.95 38.6063 307.75 38.8318 306.71 39.2827C305.67 39.7337 304.737 40.4101 303.91 41.312C305.51 41.1263 307.51 41.0335 309.91 41.0335C310.897 41.0335 311.59 40.9141 311.99 40.6754C312.39 40.4366 312.59 40.1316 312.59 39.7602C312.59 39.4419 312.39 39.1766 311.99 38.9644C311.59 38.7257 311.03 38.6063 310.31 38.6063ZM306.11 47.4396C307.603 47.4396 308.95 47.1611 310.15 46.604C311.35 46.0204 312.177 45.2644 312.63 44.336V43.3015C311.99 43.6198 311.283 43.8718 310.51 44.0575C309.737 44.2166 308.803 44.3758 307.71 44.535L306.27 44.7737C304.777 45.0655 304.03 45.5695 304.03 46.2857C304.03 47.055 304.723 47.4396 306.11 47.4396Z" fill="white"/>
</svg>
